<mxfile host="app.diagrams.net" modified="2023-06-29T02:58:52.065Z" agent="Mozilla/5.0 (Macintosh; Intel Mac OS X 10_15_7) AppleWebKit/537.36 (KHTML, like Gecko) Chrome/114.0.0.0 Safari/537.36" etag="TuBNB9Gp7oZcausEYwYi" version="21.5.0" type="github">
  <diagram name="第 1 页" id="-yJ7dZR6ZEG5t212Vwaz">
    <mxGraphModel dx="2261" dy="828" grid="1" gridSize="10" guides="1" tooltips="1" connect="1" arrows="1" fold="1" page="1" pageScale="1" pageWidth="827" pageHeight="1169" background="#F4F6FA" math="0" shadow="0">
      <root>
        <mxCell id="0" />
        <mxCell id="1" parent="0" />
        <mxCell id="_0orbBe_WSjpQMd9QpF7-1" style="edgeStyle=orthogonalEdgeStyle;rounded=1;orthogonalLoop=1;jettySize=auto;html=1;exitX=0.75;exitY=1;exitDx=0;exitDy=0;entryX=0.25;entryY=0;entryDx=0;entryDy=0;labelBackgroundColor=none;fontColor=default;strokeColor=#457B9D;" parent="1" source="_0orbBe_WSjpQMd9QpF7-9" target="_0orbBe_WSjpQMd9QpF7-13" edge="1">
          <mxGeometry relative="1" as="geometry" />
        </mxCell>
        <mxCell id="_0orbBe_WSjpQMd9QpF7-2" style="edgeStyle=orthogonalEdgeStyle;rounded=1;orthogonalLoop=1;jettySize=auto;html=1;exitX=1;exitY=0.5;exitDx=0;exitDy=0;entryX=0;entryY=0.5;entryDx=0;entryDy=0;labelBackgroundColor=none;fontColor=default;strokeColor=#457B9D;" parent="1" source="_0orbBe_WSjpQMd9QpF7-3" target="_0orbBe_WSjpQMd9QpF7-4" edge="1">
          <mxGeometry relative="1" as="geometry" />
        </mxCell>
        <mxCell id="_0orbBe_WSjpQMd9QpF7-3" value="&lt;font style=&quot;vertical-align: inherit&quot;&gt;&lt;font style=&quot;vertical-align: inherit&quot;&gt;Gateway&lt;/font&gt;&lt;/font&gt;" style="fontSize=14;spacingLeft=10;spacingRight=10;zwfType=basicShape;rounded=1;strokeWidth=2;whiteSpace=wrap;html=1;labelBackgroundColor=none;fillColor=#A8DADC;strokeColor=#457B9D;fontColor=#1D3557;" parent="1" vertex="1">
          <mxGeometry x="-190" y="330" width="160" height="72" as="geometry" />
        </mxCell>
        <mxCell id="_0orbBe_WSjpQMd9QpF7-4" value="&lt;font style=&quot;vertical-align: inherit&quot;&gt;&lt;font style=&quot;vertical-align: inherit&quot;&gt;&lt;font style=&quot;vertical-align: inherit&quot;&gt;&lt;font style=&quot;vertical-align: inherit&quot;&gt;Zookeeper&lt;/font&gt;&lt;/font&gt;&lt;/font&gt;&lt;/font&gt;" style="fontSize=14;zwfType=basicShape;rounded=1;strokeWidth=2;whiteSpace=wrap;html=1;labelBackgroundColor=none;fillColor=#A8DADC;strokeColor=#457B9D;fontColor=#1D3557;" parent="1" vertex="1">
          <mxGeometry x="10" y="330" width="160" height="72" as="geometry" />
        </mxCell>
        <mxCell id="_0orbBe_WSjpQMd9QpF7-5" style="edgeStyle=orthogonalEdgeStyle;rounded=1;orthogonalLoop=1;jettySize=auto;html=1;exitX=0.5;exitY=1;exitDx=0;exitDy=0;entryX=0.5;entryY=0;entryDx=0;entryDy=0;labelBackgroundColor=none;fontColor=default;strokeColor=#457B9D;" parent="1" source="_0orbBe_WSjpQMd9QpF7-7" target="_0orbBe_WSjpQMd9QpF7-13" edge="1">
          <mxGeometry relative="1" as="geometry" />
        </mxCell>
        <mxCell id="_0orbBe_WSjpQMd9QpF7-6" style="edgeStyle=orthogonalEdgeStyle;rounded=1;orthogonalLoop=1;jettySize=auto;html=1;exitX=0.5;exitY=0;exitDx=0;exitDy=0;entryX=0.5;entryY=1;entryDx=0;entryDy=0;labelBackgroundColor=none;fontColor=default;strokeColor=#457B9D;" parent="1" source="_0orbBe_WSjpQMd9QpF7-7" target="_0orbBe_WSjpQMd9QpF7-4" edge="1">
          <mxGeometry relative="1" as="geometry" />
        </mxCell>
        <mxCell id="_0orbBe_WSjpQMd9QpF7-7" value="&lt;font style=&quot;vertical-align: inherit&quot;&gt;&lt;font style=&quot;vertical-align: inherit&quot;&gt;&lt;font style=&quot;vertical-align: inherit&quot;&gt;&lt;font style=&quot;vertical-align: inherit&quot;&gt;&lt;font style=&quot;vertical-align: inherit&quot;&gt;&lt;font style=&quot;vertical-align: inherit&quot;&gt;Netty-A&lt;/font&gt;&lt;/font&gt;&lt;/font&gt;&lt;/font&gt;&lt;/font&gt;&lt;/font&gt;" style="fontSize=14;zwfType=basicShape;rounded=1;strokeWidth=2;whiteSpace=wrap;html=1;labelBackgroundColor=none;fillColor=#A8DADC;strokeColor=#457B9D;fontColor=#1D3557;" parent="1" vertex="1">
          <mxGeometry x="10" y="490" width="160" height="72" as="geometry" />
        </mxCell>
        <mxCell id="_0orbBe_WSjpQMd9QpF7-8" style="edgeStyle=orthogonalEdgeStyle;rounded=1;orthogonalLoop=1;jettySize=auto;html=1;exitX=0.75;exitY=0;exitDx=0;exitDy=0;entryX=0.25;entryY=1;entryDx=0;entryDy=0;labelBackgroundColor=none;fontColor=default;strokeColor=#457B9D;" parent="1" source="_0orbBe_WSjpQMd9QpF7-9" target="_0orbBe_WSjpQMd9QpF7-4" edge="1">
          <mxGeometry relative="1" as="geometry">
            <Array as="points">
              <mxPoint x="-70" y="440" />
              <mxPoint x="50" y="440" />
            </Array>
          </mxGeometry>
        </mxCell>
        <mxCell id="_0orbBe_WSjpQMd9QpF7-9" value="&lt;font style=&quot;vertical-align: inherit&quot;&gt;&lt;font style=&quot;vertical-align: inherit&quot;&gt;&lt;font style=&quot;vertical-align: inherit&quot;&gt;&lt;font style=&quot;vertical-align: inherit&quot;&gt;&lt;font style=&quot;vertical-align: inherit&quot;&gt;&lt;font style=&quot;vertical-align: inherit&quot;&gt;Netty-A&lt;/font&gt;&lt;/font&gt;&lt;/font&gt;&lt;/font&gt;&lt;/font&gt;&lt;/font&gt;" style="fontSize=14;zwfType=basicShape;rounded=1;strokeWidth=2;whiteSpace=wrap;html=1;labelBackgroundColor=none;fillColor=#A8DADC;strokeColor=#457B9D;fontColor=#1D3557;" parent="1" vertex="1">
          <mxGeometry x="-190" y="490" width="160" height="72" as="geometry" />
        </mxCell>
        <mxCell id="_0orbBe_WSjpQMd9QpF7-10" style="edgeStyle=orthogonalEdgeStyle;rounded=1;orthogonalLoop=1;jettySize=auto;html=1;exitX=0.25;exitY=1;exitDx=0;exitDy=0;entryX=0.75;entryY=0;entryDx=0;entryDy=0;labelBackgroundColor=none;fontColor=default;strokeColor=#457B9D;" parent="1" source="_0orbBe_WSjpQMd9QpF7-12" target="_0orbBe_WSjpQMd9QpF7-13" edge="1">
          <mxGeometry relative="1" as="geometry">
            <Array as="points">
              <mxPoint x="250" y="610" />
              <mxPoint x="130" y="610" />
            </Array>
          </mxGeometry>
        </mxCell>
        <mxCell id="_0orbBe_WSjpQMd9QpF7-11" style="edgeStyle=orthogonalEdgeStyle;rounded=1;orthogonalLoop=1;jettySize=auto;html=1;exitX=0.25;exitY=0;exitDx=0;exitDy=0;entryX=0.75;entryY=1;entryDx=0;entryDy=0;labelBackgroundColor=none;fontColor=default;strokeColor=#457B9D;" parent="1" source="_0orbBe_WSjpQMd9QpF7-12" target="_0orbBe_WSjpQMd9QpF7-4" edge="1">
          <mxGeometry relative="1" as="geometry">
            <Array as="points">
              <mxPoint x="250" y="440" />
              <mxPoint x="130" y="440" />
            </Array>
          </mxGeometry>
        </mxCell>
        <mxCell id="_0orbBe_WSjpQMd9QpF7-12" value="&lt;font style=&quot;vertical-align: inherit&quot;&gt;&lt;font style=&quot;vertical-align: inherit&quot;&gt;&lt;font style=&quot;vertical-align: inherit&quot;&gt;&lt;font style=&quot;vertical-align: inherit&quot;&gt;&lt;font style=&quot;vertical-align: inherit&quot;&gt;&lt;font style=&quot;vertical-align: inherit&quot;&gt;Netty-A&lt;/font&gt;&lt;/font&gt;&lt;/font&gt;&lt;/font&gt;&lt;/font&gt;&lt;/font&gt;" style="fontSize=14;zwfType=basicShape;rounded=1;strokeWidth=2;whiteSpace=wrap;html=1;labelBackgroundColor=none;fillColor=#A8DADC;strokeColor=#457B9D;fontColor=#1D3557;" parent="1" vertex="1">
          <mxGeometry x="210" y="490" width="160" height="72" as="geometry" />
        </mxCell>
        <mxCell id="_0orbBe_WSjpQMd9QpF7-13" value="&lt;font style=&quot;vertical-align: inherit&quot;&gt;&lt;font style=&quot;vertical-align: inherit&quot;&gt;Redis&lt;/font&gt;&lt;/font&gt;" style="fontSize=14;zwfType=basicShape;rounded=1;strokeWidth=2;whiteSpace=wrap;html=1;labelBackgroundColor=none;fillColor=#A8DADC;strokeColor=#457B9D;fontColor=#1D3557;" parent="1" vertex="1">
          <mxGeometry x="10" y="660" width="160" height="72" as="geometry" />
        </mxCell>
        <mxCell id="_0orbBe_WSjpQMd9QpF7-15" value="" style="spacingLeft=10;spacingRight=10;zwfType=line;endArrow=none;html=1;startSize=14;endSize=14;strokeLinecap=round;sourcePerimeterSpacing=8;targetPerimeterSpacing=8;strokeWidth=2;entryX=0.25;entryY=1;entryDx=0;entryDy=0;labelBackgroundColor=none;fontColor=default;strokeColor=#457B9D;rounded=1;" parent="1" target="_0orbBe_WSjpQMd9QpF7-3" edge="1">
          <mxGeometry width="160" height="10" relative="1" as="geometry">
            <mxPoint x="-310" y="510" as="sourcePoint" />
            <mxPoint x="-200" y="366" as="targetPoint" />
          </mxGeometry>
        </mxCell>
        <mxCell id="_0orbBe_WSjpQMd9QpF7-16" value="保持长连接" style="edgeLabel;html=1;align=center;verticalAlign=middle;resizable=0;points=[];labelBackgroundColor=none;fontColor=#1D3557;rounded=1;" parent="_0orbBe_WSjpQMd9QpF7-15" vertex="1" connectable="0">
          <mxGeometry x="0.0947" y="3" relative="1" as="geometry">
            <mxPoint as="offset" />
          </mxGeometry>
        </mxCell>
        <mxCell id="_0orbBe_WSjpQMd9QpF7-17" value="" style="spacingLeft=10;spacingRight=10;zwfType=line;endArrow=none;html=1;startSize=14;endSize=14;strokeLinecap=round;sourcePerimeterSpacing=8;targetPerimeterSpacing=8;strokeWidth=2;entryX=0.5;entryY=1;entryDx=0;entryDy=0;entryPerimeter=0;exitX=0.5;exitY=0;exitDx=0;exitDy=0;labelBackgroundColor=none;fontColor=default;strokeColor=#457B9D;rounded=1;" parent="1" source="_0orbBe_WSjpQMd9QpF7-3" target="_0orbBe_WSjpQMd9QpF7-19" edge="1">
          <mxGeometry width="160" height="10" relative="1" as="geometry">
            <mxPoint x="-120" y="320" as="sourcePoint" />
            <mxPoint x="-190" y="190" as="targetPoint" />
          </mxGeometry>
        </mxCell>
        <mxCell id="_0orbBe_WSjpQMd9QpF7-18" value="用户通过负载平衡长期连接到netty集群" style="edgeLabel;html=1;align=center;verticalAlign=middle;resizable=0;points=[];labelBackgroundColor=none;fontColor=#1D3557;rounded=1;" parent="_0orbBe_WSjpQMd9QpF7-17" vertex="1" connectable="0">
          <mxGeometry x="0.0947" y="3" relative="1" as="geometry">
            <mxPoint as="offset" />
          </mxGeometry>
        </mxCell>
        <mxCell id="_0orbBe_WSjpQMd9QpF7-19" value="Users" style="fontSize=14;spacingLeft=10;spacingRight=10;zwfType=basicShape;strokeWidth=2;html=1;shape=mxgraph.flowchart.alternate-process;whiteSpace=wrap;html=1;labelBackgroundColor=none;fillColor=#A8DADC;strokeColor=#457B9D;fontColor=#1D3557;rounded=1;" parent="1" vertex="1">
          <mxGeometry x="-190" y="170" width="160" height="72" as="geometry" />
        </mxCell>
        <mxCell id="_0orbBe_WSjpQMd9QpF7-20" value="" style="strokeWidth=2;html=1;shape=mxgraph.flowchart.annotation_2;align=left;labelPosition=right;pointerEvents=1;labelBackgroundColor=none;fillColor=#A8DADC;strokeColor=#457B9D;fontColor=#1D3557;rounded=1;" parent="1" vertex="1">
          <mxGeometry x="-260" y="476" width="50" height="100" as="geometry" />
        </mxCell>
        <mxCell id="_0orbBe_WSjpQMd9QpF7-21" value="Netty Cluster" style="text;html=1;align=center;verticalAlign=middle;resizable=0;points=[];autosize=1;strokeColor=none;fillColor=none;labelBackgroundColor=none;fontColor=#1D3557;rounded=1;" parent="1" vertex="1">
          <mxGeometry x="-350" y="511" width="90" height="30" as="geometry" />
        </mxCell>
        <mxCell id="0EbLaSeZ9V6MjkvX8Anf-1" value="&lt;h1&gt;心跳机制&lt;/h1&gt;&lt;p&gt;前后端心跳时间为5s&lt;/p&gt;&lt;p&gt;前端检测断连一直重新连接上线&lt;/p&gt;&lt;p&gt;后端检测断连清除用户信息&lt;/p&gt;" style="text;html=1;strokeColor=none;fillColor=none;spacing=5;spacingTop=-20;whiteSpace=wrap;overflow=hidden;rounded=0;glass=0;" vertex="1" parent="1">
          <mxGeometry x="10" y="170" width="190" height="130" as="geometry" />
        </mxCell>
        <mxCell id="0EbLaSeZ9V6MjkvX8Anf-3" value="&lt;h1&gt;Redis广播&lt;/h1&gt;&lt;p&gt;用户连接通过redis广播转发netty消息到对应用户的netty服务&lt;/p&gt;" style="text;html=1;strokeColor=none;fillColor=none;spacing=5;spacingTop=-20;whiteSpace=wrap;overflow=hidden;rounded=0;" vertex="1" parent="1">
          <mxGeometry x="220" y="644" width="190" height="88" as="geometry" />
        </mxCell>
        <mxCell id="0EbLaSeZ9V6MjkvX8Anf-4" value="&lt;h1&gt;Zookeeper&lt;/h1&gt;&lt;p&gt;Netty服务启动时注册到zookeeper,Gateway通过zookeeper转发ws连接&lt;/p&gt;" style="text;html=1;strokeColor=none;fillColor=none;spacing=5;spacingTop=-20;whiteSpace=wrap;overflow=hidden;rounded=0;" vertex="1" parent="1">
          <mxGeometry x="230" y="320" width="190" height="120" as="geometry" />
        </mxCell>
      </root>
    </mxGraphModel>
  </diagram>
</mxfile>
